<svg class="upsell-cart__empty-icon" version="1.1" xmlns="http://www.w3.org/2000/svg"
    xmlns:xlink="http://www.w3.org/1999/xlink" x="0px" y="0px" viewBox="0 0 100 83.5"
    style="enable-background:new 0 0 100 83.5;" xml:space="preserve">
    <path
        d="M97.7,14.3c-0.3-0.3-0.7-0.5-1.2-0.5h-78l-1.6-8.7c-0.1-0.7-0.7-1.2-1.3-1.3L3,2.2C2.2,2.1,1.4,2.7,1.3,3.6s0.5,1.7,1.4,1.8 l11.5,1.4l9.9,57c0.1,0.8,0.8,1.3,1.6,1.3h8.4v1.1c-4.1,0.9-6.8,4.9-5.9,9.1c0.9,4.1,4.9,6.8,9.1,5.9c4.1-0.9,6.8-4.9,5.9-9.1 c-0.6-3-3-5.3-5.9-5.9V65h41v1.1c-4.1,0.9-6.8,4.9-5.9,9.1c0.9,4.1,4.9,6.8,9.1,5.9c4.1-0.9,6.8-4.9,5.9-9.1c-0.6-3-3-5.3-5.9-5.9 V65H89c0.9,0,1.6-0.7,1.6-1.6s-0.7-1.6-1.6-1.6H26.9L26,56.7h64.6c0.8,0,1.5-0.6,1.6-1.3L98,15.6C98.1,15.1,97.9,14.7,97.7,14.3z   M40.1,73.6c0,2.5-2,4.5-4.5,4.5s-4.5-2-4.5-4.5c0-2.5,2-4.5,4.5-4.5l0,0C38.1,69.1,40.1,71.1,40.1,73.6z M84.3,73.6  c0,2.5-2,4.5-4.5,4.5c-2.5,0-4.5-2-4.5-4.5c0-2.5,2-4.5,4.5-4.5l0,0C82.3,69.1,84.3,71.1,84.3,73.6z M89.2,53.6H25.4L19,16.9h75.6 L89.2,53.6z M48.9,43.1c-0.9,0-1.6-0.7-1.6-1.6c0-0.2,0-0.4,0.1-0.6c2.1-5.2,8-7.8,13.2-5.8c2.6,1,4.7,3.1,5.8,5.8  c0.4,0.8,0,1.7-0.8,2.1c-0.8,0.4-1.7,0-2.1-0.8c0,0,0-0.1,0-0.1c-1.1-2.7-3.7-4.5-6.6-4.5c-2.9,0-5.5,1.8-6.5,4.5 C50.1,42.7,49.5,43.1,48.9,43.1z M51.8,29.9c0,1.4-1.2,2.5-2.6,2.4c-1.4,0-2.5-1.2-2.4-2.6c0-1.4,1.2-2.4,2.6-2.4 C50.7,27.3,51.8,28.5,51.8,29.9C51.8,29.9,51.8,29.9,51.8,29.9z M67.1,29.9c0,1.4-1.2,2.5-2.6,2.4s-2.5-1.2-2.4-2.6 c0-1.3,1.1-2.4,2.5-2.4C65.9,27.3,67,28.4,67.1,29.9C67.1,29.8,67.1,29.8,67.1,29.9z">
    </path>
</svg>