<svg width="11" height="11" viewBox="0 0 11 11" fill="none" xmlns="http://www.w3.org/2000/svg">
                <path d="M2.05464 11C1.70369 11 1.40433 10.8903 1.15657 10.6708C0.909333 10.4513 0.785714 10.1855 0.785714 9.87349V1.23462H0V0.537096H3.14286V0H7.85714V0.537096H11V1.23462H10.2143V9.87349C10.2143 10.1944 10.0933 10.4622 9.85129 10.677C9.60929 10.8919 9.30731 10.9995 8.94536 11H2.05464ZM9.42857 1.23462H1.57143V9.87349C1.57143 9.99858 1.61674 10.1014 1.70736 10.1818C1.79798 10.2622 1.91374 10.3025 2.05464 10.3025H8.94536C9.06583 10.3025 9.17662 10.2578 9.27771 10.1685C9.37881 10.0793 9.4291 9.98091 9.42857 9.87349V1.23462ZM3.77771 8.90742H4.56343V2.62968H3.77771V8.90742ZM6.43657 8.90742H7.22229V2.62968H6.43657V8.90742Z" fill="#666666"></path>
              </svg>